{"title":"Hereafter 2010 CAM XViD SnF SAFCuk009+Fabreezy","uid":6097107,"size":1006508891,"categoryP":"video","categoryS":"movies","magnet":"?xt=urn:btih:bbe2459075f7f1f77ee28a06aae9dd682da98efe&amp;dn=Hereafter+2010+CAM+XViD+SnF+SAFCuk009%2BFabreezy&amp;tr=udp%3A%2F%2Ftracker.openbittorrent.com%3A80&amp;tr=udp%3A%2F%2Fopen.demonii.com%3A1337&amp;tr=udp%3A%2F%2Ftracker.coppersurfer.tk%3A6969&amp;tr=udp%3A%2F%2Fexodus.desync.com%3A6969","seeders":0,"leechers":1,"uploader":"SAFCukO09","files":2,"time":1294820624,"description":"Format : AVI\nFormat/Info : Audio Video Interleave\nFile size : 960 MiB\nDuration : 2h 2mn\nOverall bit rate : 1 094 Kbps\nWriting library : VirtualDub build 32839/release\n\nVideo\nID : 0\nFormat : MPEG-4 Visual\nFormat profile : Advanced Simple@L5\nFormat settings, BVOP : Yes\nFormat settings, QPel : No\nFormat settings, GMC : No warppoints\nFormat settings, Matrix : Custom\nCodec ID : XVID\nCodec ID/Hint : XviD\nDuration : 2h 2mn\nBit rate : 956 Kbps\nWidth : 720 pixels\nHeight : 304 pixels\nDisplay aspect ratio : 2.35:1\nFrame rate : 23.976 fps\nColor space : YUV\nChroma subsampling : 4:2:0\nBit depth : 8 bits\nScan type : Progressive\nBits/(Pixel*Frame) : 0.182\nStream size : 839 MiB (87%)\nWriting library : XviD 1.2.1 (UTC 2008-12-04)\n\nAudio\nID : 1\nFormat : MPEG Audio\nFormat version : Version 1\nFormat profile : Layer 3\nMode : Joint stereo\nMode extension : MS Stereo\nCodec ID : 55\nCodec ID/Hint : MP3\nDuration : 2h 2mn\nBit rate mode : Constant\nBit rate : 128 Kbps\nChannel(s) : 2 channels\nSampling rate : 44.1 KHz\nStream size : 112 MiB (12%)\nAlignment : Split accross interleaves\nInterleave, duration : 42 ms (1.00 video frame)\nInterleave, preload duration : 500 ms\n\n\n\n &lt;a href=&quot;\nhttp://www.imdb.com/title/tt1212419/&quot; rel=&quot;nofollow&quot; target=&quot;_NEW&quot;&gt;\nhttp://www.imdb.com/title/tt1212419/&lt;/a&gt;\n\n\n\n\nUsers: 7.4/10 (4,118 votes) 115 reviews | Critics: 127 reviews Metascore: 56/100 (based on 41 reviews from Metacritic.com)\n\nA drama centered on three people -- a blue-collar American, a French journalist and a London school boy -- who are touched by death in different ways.\nDirector:\nClint Eastwood\nWriter:\nPeter Morgan\nStars:\nMatt Damon, CÃƒÂ©cile De France and Bryce Dallas Howard ","torrent":{"xt":"urn:btih:bbe2459075f7f1f77ee28a06aae9dd682da98efe","amp;dn":"Hereafter+2010+CAM+XViD+SnF+SAFCuk009%2BFabreezy","amp;tr":["udp%3A%2F%2Ftracker.openbittorrent.com%3A80","udp%3A%2F%2Fopen.demonii.com%3A1337","udp%3A%2F%2Ftracker.coppersurfer.tk%3A6969","udp%3A%2F%2Fexodus.desync.com%3A6969"],"infoHash":"bbe2459075f7f1f77ee28a06aae9dd682da98efe","infoHashBuffer":{"type":"Buffer","data":[187,226,69,144,117,247,241,247,126,226,138,6,170,233,221,104,45,169,142,254]},"announce":[],"urlList":[]}}